# xmcd
#
# Track frame offsets: 
#        150
#        15982
#        33046
#        59041
#        73905
#        97714
#        108264
#        124614
#        152069
#        166763
#        182537
#
# Disc length: 2612 seconds
#
# Revision: 0
# Processed by: cddbd v1.5.2PL0 Copyright (c) Steve Scherf et al.
# Submitted via: ExactAudioCopy v0.99pb4
#
DISCID=7c0a320b
DTITLE=Chris Bell and 100% Blues - Hell Is Too Hot For Me
DYEAR=2003
DGENRE=Blues
TTITLE0=Hell Is Too Hot For Me
TTITLE1=Deli Man
TTITLE2=Two Jobs
TTITLE3=Can't Keep A Good Man Down
TTITLE4=Cold-Hearted Woman
TTITLE5=Opposites Attract
TTITLE6=Next To You
TTITLE7=Hate It When You Lie
TTITLE8=She Found Another Man
TTITLE9=Emergency
TTITLE10=Bury Me Alive
EXTD=
EXTT0=
EXTT1=
EXTT2=
EXTT3=
EXTT4=
EXTT5=
EXTT6=
EXTT7=
EXTT8=
EXTT9=
EXTT10=
PLAYORDER=
